<?xml version="1.0" encoding="utf-8"?>
<!-- Generator: Adobe Illustrator 25.2.0, SVG Export Plug-In . SVG Version: 6.00 Build 0)  -->
<svg version="1.1" id="Layer_1" focusable="false" xmlns="http://www.w3.org/2000/svg" xmlns:xlink="http://www.w3.org/1999/xlink"
	 x="0px" y="0px" viewBox="0 0 20 30" style="enable-background:new 0 0 20 30;" xml:space="preserve">
<style type="text/css">
	.st0{fill:#FFFFFF;}
</style>
<g id="Capa_2">
	<g id="BUENOS">
		<path class="st0" d="M5.9,19.4c-0.4,0-0.8,0.4-0.8,0.8c0,0.4,0.4,0.8,0.8,0.8c0.4,0,0.8-0.4,0.8-0.8c0,0,0,0,0,0
			C6.7,19.8,6.4,19.4,5.9,19.4C5.9,19.4,5.9,19.4,5.9,19.4z"/>
		<path class="st0" d="M10,5C4.5,5,0,9.5,0,15s4.5,10,10,10s10-4.5,10-10S15.5,5,10,5z M5.9,21.5c-0.7,0-1.3-0.6-1.3-1.3
			c0-0.7,0.6-1.3,1.3-1.3s1.3,0.6,1.3,1.3C7.2,20.9,6.6,21.5,5.9,21.5z M16.3,11c-0.1,0.2-0.2,0.4-0.5,0.5c-1.4,0.8-2.6,1.8-3.5,3.1
			c-0.3,0.4-0.2,0.9,0.2,1.2c0,0,0,0,0,0c0.4,0.3,0.5,0.8,0.2,1.2c-0.1,0.2-0.3,0.3-0.5,0.4l-4.7,1.3c-0.5,0.1-1-0.1-1.1-0.6
			c0-0.1,0-0.1,0-0.2c-0.1-1.5-0.2-3.1-0.3-4.6c0-0.5,0.3-0.9,0.8-0.9c0.2,0,0.3,0,0.5,0.1l0.3,0.2c0.3,0.2,0.7,0.1,1-0.1l0.7-0.7
			l0.1-0.1c1.6-1.3,3.7-2,5.7-1.9c0.2,0,0.3,0,0.4,0.1C16.2,10.1,16.4,10.6,16.3,11z"/>
	</g>
</g>
</svg>
