<?xml version="1.0" encoding="utf-8"?>
<!-- Generator: Adobe Illustrator 25.2.0, SVG Export Plug-In . SVG Version: 6.00 Build 0)  -->
<svg version="1.1" id="Layer_1" xmlns="http://www.w3.org/2000/svg" xmlns:xlink="http://www.w3.org/1999/xlink" x="0px" y="0px"
	 viewBox="0 0 136.5 158" style="enable-background:new 0 0 136.5 158;" xml:space="preserve">
<style type="text/css">
	.st0{fill:#FFFFFF;}
</style>
<path class="st0" d="M51.4,106.3h-8.2c-0.5,0-0.9-0.4-0.9-0.9c0,0,0-0.1,0-0.1l8-42.8c0.1-0.4,0.4-0.7,0.8-0.7h2.2
	c0.3,0,0.6,0.2,0.8,0.5l12.8,25.9c0.2,0.4,0.7,0.6,1.1,0.4c0.2-0.1,0.3-0.2,0.4-0.4l12.7-25.9c0.1-0.3,0.4-0.5,0.8-0.5h2.2
	c0.4,0,0.8,0.3,0.8,0.7l8.1,42.9c0.1,0.5-0.2,0.9-0.7,1c0,0-0.1,0-0.1,0h-8.2c-0.4,0-0.8-0.3-0.8-0.8L81.5,85c0-0.5-0.5-0.8-0.9-0.8
	c-0.3,0-0.5,0.2-0.7,0.5l-10.5,20.7c-0.1,0.3-0.4,0.5-0.8,0.5h-1.9c-0.3,0-0.6-0.2-0.8-0.5L55.5,84.9c-0.2-0.4-0.7-0.6-1.1-0.4
	c-0.3,0.1-0.5,0.4-0.5,0.7l-1.6,20.3C52.2,106,51.8,106.3,51.4,106.3z"/>
<path class="st0" d="M135,75.8c-3-14.5-10.7-27.6-21.9-37.3l14.8-24.1l0,0c2.5-4.7,0.7-10.5-4-13c-4.3-2.3-9.6-1-12.4,3l0,0
	L96.9,27.9c-34.2-15.8-74.7-1-90.6,33.2s-1,74.7,33.2,90.6c9,4.2,18.8,6.3,28.7,6.3c4.7,0,9.4-0.5,14-1.5
	C119.1,148.8,142.7,112.6,135,75.8L135,75.8z M68.4,142.7c-29.3,0-53-23.7-53-53s23.7-53,53-53s53,23.7,53,53S97.7,142.7,68.4,142.7
	z"/>
<rect x="46.1" y="113" class="st0" width="44" height="3"/>
</svg>
