<?xml version="1.0" encoding="utf-8"?>
<!-- Generator: Adobe Illustrator 25.2.0, SVG Export Plug-In . SVG Version: 6.00 Build 0)  -->
<svg version="1.1" id="Layer_1" focusable="false" xmlns="http://www.w3.org/2000/svg" xmlns:xlink="http://www.w3.org/1999/xlink"
	 x="0px" y="0px" viewBox="0 0 20 30" style="enable-background:new 0 0 20 30;" xml:space="preserve">
<style type="text/css">
	.st0{fill:#FFFFFF;}
</style>
<path class="st0" d="M15.4,10.4L15.4,10.4l-2.3-0.6L11,9.3h-0.1c-0.1,0-0.3,0.1-0.4,0.2c-0.1,0.1-0.2,0.3-0.1,0.5l0.1,0.3
	c0.2,0.5,0,1-0.4,1.3l-0.9,0.7c-1.5,1.3-2.5,3.1-2.8,5.1c0,0.1,0,0.2,0,0.4c0,0.1,0.1,0.2,0.2,0.3c0.1,0.1,0.3,0.1,0.4,0.1
	c0.1,0,0.3-0.1,0.3-0.2c1-1.2,2.3-2.3,3.8-2.9c0.6-0.3,1.3-0.1,1.6,0.5c0,0,0,0.1,0,0.1c0.1,0.2,0.3,0.3,0.5,0.3
	c0.2,0,0.4-0.1,0.5-0.3l2.1-4.3c0.1-0.1,0.1-0.3,0-0.5C15.7,10.6,15.6,10.5,15.4,10.4z"/>
<path class="st0" d="M10,5C4.5,5,0,9.5,0,15s4.5,10,10,10s10-4.5,10-10S15.5,5,10,5z M5.3,21c-0.6,0-1.1-0.5-1.1-1.1
	c0-0.6,0.5-1.1,1.1-1.1c0.6,0,1.1,0.5,1.1,1.1c0,0,0,0,0,0C6.4,20.5,5.9,21,5.3,21z M16.4,11.5l-2.1,4.3c-0.3,0.6-1,0.8-1.6,0.5
	c-0.3-0.1-0.4-0.3-0.6-0.6c-0.1-0.1-0.2-0.2-0.3-0.3c-0.1-0.1-0.3-0.1-0.4,0c-1.4,0.6-2.6,1.6-3.5,2.7c-0.2,0.3-0.4,0.4-0.8,0.5
	c-0.1,0-0.1,0-0.2,0c-0.3,0-0.5-0.1-0.7-0.2c-0.2-0.2-0.4-0.5-0.5-0.8c0-0.2,0-0.4,0-0.6c0.3-2.1,1.4-4,3-5.4l0.1-0.1L9.7,11
	c0.2-0.1,0.2-0.4,0.2-0.6l-0.1-0.3C9.6,9.7,9.7,9.3,10,9c0.3-0.3,0.8-0.5,1.2-0.4l2.2,0.6l2.3,0.6c0.4,0.1,0.7,0.3,0.8,0.7
	C16.6,10.8,16.6,11.2,16.4,11.5z"/>
</svg>
